# xmcd
# 
# Track frame offsets:
#     183
#     16265
#     41350
#     60793
#     80925
#     99073
#     118455
#     137610
#     159180
#     177863
#     192238
#     209000
#     227953
#     247043
# 
# Disc length: 3578
# 
# Revision: 5
# Processed by: cddbd v1.5.2PL0 Copyright (c) Steve Scherf et al.
# Submitted via: fre:ac v1.0.17
# 
DISCID=b70df80e
DTITLE=Swing Out Sister - Kaleidoscope World (838_293-2)
DYEAR=1989
DGENRE=Jazz
TTITLE0=You On My Mind
TTITLE1=Where In The World
TTITLE2=Forever Blue
TTITLE3=Heart For Hire
TTITLE4=Tainted
TTITLE5=Waiting Game
TTITLE6=Precious Words
TTITLE7=Masquerade
TTITLE8=Between Strangers
TTITLE9=The Kaleidoscope Affair
TTITLE10=Coney Island Man
TTITLE11=Precious Words (Instrumental)
TTITLE12=Forever Blue (String Mix)
TTITLE13=Masquerade (Instrumental)
EXTD=Fontana\n838 293-2\n0 422-838293-2 9\nAAD\n4 Bonus Tracks: [#11-14]
EXTT0=
EXTT1=
EXTT2=
EXTT3=
EXTT4=
EXTT5=
EXTT6=
EXTT7=
EXTT8=
EXTT9=
EXTT10=
EXTT11=
EXTT12=
EXTT13=
PLAYORDER=
